<svg xmlns="http://www.w3.org/2000/svg" width="196" height="62" viewBox="-501.602 431.079 196 62" enable-background="new -501.602 431.079 196 62"><path fill="#fff" d="M-328.145 435.705h8.88v1.601h-7.021v4.699h6.58v1.66h-6.58v6.32h-1.859v-14.28zM-316.865 435.705h4.68c1.066 0 1.941.12 2.621.36s1.217.55 1.609.93c.394.38.664.811.811 1.29s.22.967.22 1.46c0 .907-.19 1.68-.569 2.32-.381.64-1.004 1.14-1.871 1.5l3 6.42h-2.06l-2.7-5.98c-.174.027-.358.044-.561.051l-.539.01h-2.82v5.921h-1.82v-14.282h-.001zm4.869 6.76c.643 0 1.172-.062 1.586-.188s.742-.306.981-.538c.241-.232.408-.516.502-.848.095-.332.142-.703.142-1.115 0-.398-.053-.75-.16-1.057-.107-.305-.291-.566-.553-.787-.261-.219-.611-.385-1.054-.498-.44-.112-1.003-.168-1.686-.168h-2.81v5.201h3.051v-.002zM-461.609 447.635l7.062-6.461c-4.831-7.27-20.721-13.339-33.217-8.162-12.498 5.178-14.684 19.459-6.684 26.59 8.001 7.131 24.968 5.562 29.288 11.307 4.389 5.834-1.762 11.965-8.838 12.414-6.982.441-15.017-.613-19.836-9.068l-7.767 7.363c6.918 9.148 20.755 12.266 33.263 9.652 12.507-2.611 18.07-14.504 13.578-25-2.098-4.901-7.82-7.604-14.616-9.11-7.739-1.713-14.628-2.312-18.089-6.008-3.451-3.688-.344-9.214 5.101-11.089 5.446-1.873 14.996-.702 20.755 7.572zM-450.602 436.079h10v55h-10zM-381.643 455.576h9.041v-6.741h-9.041v-13.142l-9.506 9.55v3.592h-6.303v6.741h6.303v26.132c0 7.209 4.479 10.365 12.131 10.365h3.305v-9.041c-4.062-.062-5.93-1.09-5.93-3.723v-23.733zM-352.416 447.318c-14.427 0-20.754 11.581-20.754 22.093 0 9.674 6.494 22.662 21.523 22.662 15.031 0 18.312-12.57 18.312-14.68l-9.309-.006c0 2.215-2.646 6.35-8.316 6.35-5.675 0-12.035-3.947-12.035-12.658h30.137c.594-12.746-5.732-23.761-19.558-23.761zm-10.176 16.335c1.172-4.352 4.52-8.102 10.311-8.102s9.039 3.782 9.373 8.102h-19.684zM-399.793 479.698v-19.626c0-8.47-5.711-12.753-17.363-12.753-11.649 0-18.087 4.285-18.5 13.39h9.216c.357-3.795 3.057-5.803 8.48-5.803s8.705 1.808 8.241 7.542c-9.011 3.582-20.07 2.326-24.711 7.9-4.998 6.002-3.303 14.885 1.697 18.811 4.998 3.928 16.413 5.006 23.242-2.293l.619 3.967 10.695-.031c-1.088-3.516-1.616-5.257-1.616-11.104zm-9.909-4.596c0 4.719-4.493 8.475-9.581 8.562-2.807.049-6.939-.477-7.604-4.219-.663-3.744 2.316-5.551 4.015-6.146 3.841-1.348 5.993-1.055 13.169-3.268l.001 5.071z"/></svg>